<svg xmlns="http://www.w3.org/2000/svg" viewBox="0 0 759.63 229.49"><defs><style>.cls-1{fill:#efefef;}</style></defs><g id="Camada_2" data-name="Camada 2"><g id="Camada_1-2" data-name="Camada 1"><path class="cls-1" d="M176.92,112.35l-2.76-12.61a7,7,0,0,0-8.51-5.27A243.57,243.57,0,0,0,131.6,105.8L92.17,4.41a6.91,6.91,0,0,0-12.9.06L.45,213.1a6.92,6.92,0,0,0,3.39,8.64l12.92,6.39a6.9,6.9,0,0,0,8.71-2.2,296.25,296.25,0,0,1,37.85-43.25,278.26,278.26,0,0,1,49.13-37.31q2.34-1.38,4.7-2.71a169.21,169.21,0,0,1,24.18-11.84,214.32,214.32,0,0,1,30.5-10.24A7,7,0,0,0,176.92,112.35ZM98.33,122.56a302.14,302.14,0,0,0-48.67,36.2L86,62.56l21.34,54.87Q102.81,119.89,98.33,122.56Z"/><path class="cls-1" d="M172.06,224.28,159.94,229a6.92,6.92,0,0,1-8.95-3.94l-26.47-63.69a3,3,0,0,1,1.31-3.71,174.07,174.07,0,0,1,19.08-9.39,3,3,0,0,1,4,1.69L176,215.34A6.9,6.9,0,0,1,172.06,224.28Z"/><path class="cls-1" d="M248.46,64.16h34.59a2.06,2.06,0,0,1,2,1.44l38.61,123.92a1.11,1.11,0,0,1-1.06,1.44H293.85a1.1,1.1,0,0,1-1.06-.79l-9.31-31a1.1,1.1,0,0,0-1.06-.79H247.78a1.1,1.1,0,0,0-1.07.81l-8.58,30.92a1.11,1.11,0,0,1-1.07.82H209.68a1.11,1.11,0,0,1-1.06-1.44L246.49,65.61A2.06,2.06,0,0,1,248.46,64.16Zm29,73a1.1,1.1,0,0,0,1.06-1.41l-7.31-25.68c-2.25-7.52-4.51-16.93-6.39-24.27h-.57c-1.69,7.34-3.76,17.12-5.64,24.27l-7.13,25.69a1.1,1.1,0,0,0,1.07,1.4Z"/><path class="cls-1" d="M337.33,124.92H329a1.52,1.52,0,0,1-1.52-1.51v-16.6A1.52,1.52,0,0,1,329,105.3h8.36a1.52,1.52,0,0,0,1.51-1.51V102c0-10.34,3.15-21.55,10.86-28.73,6.83-6.3,15.77-8.58,23.65-8.58a48.17,48.17,0,0,1,13.32,1.66A1.52,1.52,0,0,1,387.72,68l-2.4,17.38a1.51,1.51,0,0,1-1.87,1.26,22.63,22.63,0,0,0-5.9-.77c-8.75,0-12.08,6.14-12.08,15.07v2.87A1.51,1.51,0,0,0,367,105.3h14.14a1.51,1.51,0,0,1,1.51,1.51v16.6a1.51,1.51,0,0,1-1.51,1.51h-14a1.52,1.52,0,0,0-1.51,1.51v63a1.52,1.52,0,0,1-1.51,1.51H340.35a1.52,1.52,0,0,1-1.51-1.51v-63A1.52,1.52,0,0,0,337.33,124.92Z"/><path class="cls-1" d="M403.87,84.76c0-6.41,4.66-11.21,11.64-11.21,7.14,0,11.65,4.8,11.65,11.21.14,6.11-4.51,11.06-11.94,11.06C408.24,95.82,403.87,90.87,403.87,84.76Zm-.33,20.54h23.77a1.52,1.52,0,0,1,1.52,1.51v82.64a1.52,1.52,0,0,1-1.52,1.51H403.54a1.51,1.51,0,0,1-1.51-1.51V106.81A1.51,1.51,0,0,1,403.54,105.3Z"/><path class="cls-1" d="M550.9,84.76c0-6.41,4.66-11.21,11.65-11.21s11.64,4.8,11.64,11.21c.15,6.11-4.51,11.06-11.93,11.06C555.27,95.82,550.9,90.87,550.9,84.76Zm-.33,20.54h23.78a1.52,1.52,0,0,1,1.51,1.51v82.64a1.52,1.52,0,0,1-1.51,1.51H550.57a1.52,1.52,0,0,1-1.51-1.51V106.81A1.52,1.52,0,0,1,550.57,105.3Z"/><path class="cls-1" d="M448.22,132.63c0-10-.31-18.41-.63-25.75a1.51,1.51,0,0,1,1.51-1.58h20.35a1.52,1.52,0,0,1,1.5,1.36L472,117.21h.53c3.5-5.6,12.08-13.84,26.45-13.84,17.51,0,30.65,11.56,30.65,36.79v49.29a1.52,1.52,0,0,1-1.51,1.51h-23.6a1.52,1.52,0,0,1-1.52-1.51v-46c0-11-4-18.56-13.48-18.56-7.36,0-11.74,5.08-13.49,10a18.35,18.35,0,0,0-1.05,6.66v47.89A1.52,1.52,0,0,1,473.5,191H449.73a1.51,1.51,0,0,1-1.51-1.51Z"/><path class="cls-1" d="M612.93,185.35c-4.91-5.08-7.19-13.14-7.19-25.4V126.43a1.51,1.51,0,0,0-1.51-1.51H595.7a1.52,1.52,0,0,1-1.52-1.51v-16.6a1.52,1.52,0,0,1,1.52-1.51h8.53a1.51,1.51,0,0,0,1.51-1.51V88.1a1.52,1.52,0,0,1,1.17-1.47L630,81.21a1.51,1.51,0,0,1,1.85,1.47v21.11a1.52,1.52,0,0,0,1.52,1.51h16.07a1.52,1.52,0,0,1,1.51,1.51v16.6a1.52,1.52,0,0,1-1.51,1.51H633.36a1.52,1.52,0,0,0-1.52,1.51v29.49c0,10.34,2.46,15.07,10.34,15.07a36.06,36.06,0,0,0,6.29-.49,1.51,1.51,0,0,1,1.78,1.48l.16,17.34a1.52,1.52,0,0,1-1.07,1.46,58.44,58.44,0,0,1-16.09,2.11C624.49,192.89,617.31,189.91,612.93,185.35Z"/><path class="cls-1" d="M670,208.68a1.51,1.51,0,0,1,1-1.82,45.38,45.38,0,0,0,10.16-4.34A27.69,27.69,0,0,0,692,191.94a1.43,1.43,0,0,1,.14-.2,6,6,0,0,0,1.5-3.59,8.68,8.68,0,0,0-1.19-4.31l-.06-.13-30.5-76.34a1.51,1.51,0,0,1,1.4-2.07h26.25a1.51,1.51,0,0,1,1.45,1.07l12.46,41c1.4,5.08,3,11.39,4.2,15.94h.7c1.06-4.55,2.46-11,3.68-15.94l10.23-40.9a1.51,1.51,0,0,1,1.46-1.14H749a1.51,1.51,0,0,1,1.42,2L731.15,161.7c-12.27,34-20.5,47.65-30.13,56.23a48.47,48.47,0,0,1-24.38,11.54,1.52,1.52,0,0,1-1.71-1.13Z"/><path class="cls-1" d="M739.22,180.71a10.21,10.21,0,1,1,20.41,0c0,6-4.14,10.25-10.19,10.25A9.8,9.8,0,0,1,739.22,180.71Zm18.28,0a8.08,8.08,0,1,0-16.15,0,8.08,8.08,0,1,0,16.15,0Zm-13.63,0a5.55,5.55,0,0,1,5.66-5.72,5.12,5.12,0,0,1,5.06,3.5l-2.21.78a2.73,2.73,0,0,0-2.82-2,3.46,3.46,0,0,0,0,6.9,2.78,2.78,0,0,0,2.85-2l2.21.81a5.15,5.15,0,0,1-5.12,3.47A5.55,5.55,0,0,1,743.87,180.68Z"/></g></g></svg>